<?xml version="1.0" encoding="utf-8"?>
<!-- Generator: Adobe Illustrator 28.1.0, SVG Export Plug-In . SVG Version: 6.00 Build 0)  -->
<svg version="1.1" id="Layer_1" xmlns="http://www.w3.org/2000/svg" xmlns:xlink="http://www.w3.org/1999/xlink" x="0px" y="0px"
	 viewBox="0 0 20 20" style="enable-background:new 0 0 20 20;" xml:space="preserve">
<style type="text/css">
	.st0{fill:#7986AC;}
</style>
<g>
	<path class="st0" d="M17.5,11.4c0,1.9,0,3.8,0,5.8c0,0.8-0.3,1.4-1,1.8c-0.3,0.2-0.6,0.3-1,0.3c-3.3,0-6.7,0-10,0
		c-1,0-1.8-0.7-2-1.7c0-0.3,0-0.7,0-1c0-0.1,0-0.1-0.1-0.1c-0.5,0-0.8-0.3-0.8-0.8c0-0.6,0-1.1,0-1.7c0-1,0-2,0-3
		c0-0.3,0.1-0.6,0.4-0.7C3,10,3.2,10,3.4,10c0.1,0,0.1,0,0.1-0.2c0-2.3,0-4.7,0-7C3.5,2,4,1.1,4.9,0.9c0.2,0,0.4-0.1,0.5-0.1
		c2.4,0,4.8,0,7.2,0c0.1,0,0.2,0,0.2,0.1c1.5,1.5,3,2.9,4.4,4.4c0.1,0.1,0.1,0.2,0.1,0.3C17.5,7.6,17.5,9.5,17.5,11.4z M10.5,18
		c1.7,0,3.3,0,5,0c0.1,0,0.2,0,0.3,0c0.3-0.1,0.6-0.4,0.6-0.8c0-2.5,0-5.1,0-7.6c0-1.1,0-2.3,0-3.5c0-0.2,0-0.2-0.2-0.2
		c-0.7,0-1.5,0-2.2,0c-0.2,0-0.3,0-0.5-0.1c-0.6-0.2-1-0.7-1-1.3c0-0.8,0-1.6,0-2.4c0-0.1,0-0.1-0.1-0.1c-0.5,0-1,0-1.5,0
		C9,2,7.3,2,5.5,2c-0.1,0-0.2,0-0.2,0C4.9,2.1,4.7,2.4,4.7,2.8c0,2.3,0,4.6,0,6.9c0,0.2,0,0.2,0.2,0.2c3,0,6,0,8.9,0
		c0.1,0,0.1,0,0.2,0c0.5,0,0.8,0.4,0.8,0.9c0,1.5,0,3.1,0,4.6c0,0.6-0.4,0.9-0.9,0.9c-3,0-6,0-9.1,0c0,0-0.1,0-0.1,0
		c-0.1,0-0.1,0-0.1,0.1c0,0.2,0,0.4,0,0.7C4.7,17.6,5,18,5.5,18C7.2,18,8.8,18,10.5,18z M7.5,13.3c0,0.5,0,1,0,1.5
		c0,0.1,0,0.1,0.1,0.1c0.5,0,1,0.1,1.4,0c0.4-0.1,0.8-0.2,1-0.6c0.3-0.3,0.3-0.8,0.3-1.2c0-0.8-0.5-1.4-1.3-1.5
		c-0.5-0.1-0.9-0.1-1.4,0c-0.2,0-0.2,0-0.2,0.2C7.5,12.3,7.5,12.8,7.5,13.3z M4.6,13.3c0,0.5,0,1,0,1.5c0,0.1,0,0.1,0.1,0.1
		c0.1,0,0.3,0,0.5,0c0.1,0,0.1,0,0.1-0.1c0-0.3,0-0.6,0-0.9c0-0.1,0-0.1,0.1-0.1c0.1,0,0.3,0,0.4,0c0.3,0,0.7-0.1,0.9-0.4
		c0.4-0.5,0.3-1.5-0.6-1.6c-0.5-0.1-0.9,0-1.4,0c-0.1,0-0.1,0.1-0.1,0.2C4.6,12.3,4.6,12.8,4.6,13.3z M10.9,13.3c0,0.5,0,1,0,1.5
		c0,0.1,0,0.1,0.1,0.1c0.1,0,0.3,0,0.4,0c0.2,0,0.2,0,0.2-0.2c0-0.3,0-0.7,0-1c0-0.1,0-0.2,0.1-0.2c0.3,0,0.6,0,0.9,0
		c0.1,0,0.1,0,0.1-0.1c0-0.1,0-0.2,0-0.3c0-0.1,0-0.1-0.1-0.1c-0.3,0-0.6,0-0.9,0c-0.1,0-0.1,0-0.1-0.1c0-0.2,0-0.3,0-0.5
		c0-0.2,0-0.2,0.2-0.2c0.3,0,0.6,0,0.9,0c0.1,0,0.2,0,0.2-0.1c0-0.1,0-0.2,0-0.3c0-0.1,0-0.1-0.1-0.1c-0.6,0-1.2,0-1.7,0
		c-0.1,0-0.1,0-0.1,0.1C10.9,12.3,10.9,12.8,10.9,13.3z"/>
	<path class="st0" d="M8.2,13.3c0-0.3,0-0.6,0-1c0-0.1,0-0.1,0.1-0.1c0.2,0,0.4,0,0.6,0c0.4,0.1,0.6,0.3,0.7,0.7
		c0.1,0.3,0.1,0.5,0,0.8c-0.1,0.4-0.4,0.7-0.8,0.7c-0.1,0-0.3,0-0.4,0c-0.1,0-0.1,0-0.1-0.1C8.2,13.9,8.2,13.6,8.2,13.3z"/>
	<path class="st0" d="M5.3,12.7c0-0.1,0-0.3,0-0.4c0-0.1,0-0.1,0.1-0.1c0.1,0,0.3,0,0.4,0c0.2,0.1,0.4,0.2,0.4,0.4
		c0,0.3-0.1,0.5-0.3,0.6c-0.2,0.1-0.4,0.1-0.6,0.1c-0.1,0-0.1-0.1-0.1-0.1C5.3,12.9,5.3,12.8,5.3,12.7z"/>
</g>
</svg>
